Coordinates
version=1
nRows=11
nColumns=40
inDegrees=yes

Units are S.I. units (second, meters, Newtons, ...)
Angles are in degrees.

endheader
time	pelvis_tilt	pelvis_list	pelvis_rotation	pelvis_tx	pelvis_ty	pelvis_tz	hip_flexion_r	hip_adduction_r	hip_rotation_r	knee_angle_r	knee_angle_r_beta	ankle_angle_r	subtalar_angle_r	mtp_angle_r	hip_flexion_l	hip_adduction_l	hip_rotation_l	knee_angle_l	knee_angle_l_beta	ankle_angle_l	subtalar_angle_l	mtp_angle_l	lumbar_extension	lumbar_bending	lumbar_rotation	arm_flex_r	arm_add_r	arm_rot_r	elbow_flex_r	pro_sup_r	wrist_flex_r	wrist_dev_r	arm_flex_l	arm_add_l	arm_rot_l	elbow_flex_l	pro_sup_l	wrist_flex_l	wrist_dev_l
      1.10000000	      1.17054758	      6.78356110	     -2.86281508	     -0.02565031	      0.93685434	     -1.45131312	    -15.81496965	    -13.81095762	    -24.12105306	    -24.98355367	     -0.43604527	      4.20156066	      9.73309699	    -14.12486044	     19.91208110	     -3.31972801	     18.22099890	    -16.68380405	     -0.29118731	     -6.41487812	      1.59482855	      3.03951693	     -3.19857448	    -10.00448057	      9.33864113	      8.45136444	    -13.17668594	    -12.46718978	     36.06811002	     89.95437384	      0.00000000	      0.00000000	    -12.63304399	     10.16790238	     15.02843347	      9.89125137	     89.95437384	      0.00000000	      0.00000000
      1.11000000	      0.72727252	      7.82052506	     -2.58261942	     -0.01390062	      0.93678843	     -1.45576106	    -14.76064569	    -15.99174008	    -25.19129143	    -27.68013600	     -0.48310951	      2.58612194	     10.88841634	    -13.63612367	     20.02697710	     -5.14508489	     16.25120481	    -17.00569209	     -0.29680532	     -6.22926944	      3.96539116	      1.67655893	     -2.42460636	    -10.99154165	      9.11647820	      7.85264235	    -12.84560708	    -12.76277311	     35.57424904	     89.95437384	      0.00000000	      0.00000000	    -12.34442589	     10.28601137	     14.47396466	     10.10431940	     89.95437384	      0.00000000	      0.00000000
      1.12000000	      0.74195111	      8.07635948	     -2.34369385	     -0.00206327	      0.93769735	     -1.45925261	    -14.25640646	    -16.94427691	    -25.38500386	    -29.74389339	     -0.51912887	      0.00224135	      9.92542792	    -12.76160047	     19.71540065	     -5.80466612	     15.42721052	    -17.84248739	     -0.31141015	     -5.44226378	      4.20914229	      1.18757515	     -2.22937677	    -11.17872223	      8.83258412	      7.30095635	    -12.60945172	    -12.85670776	     35.08945315	     89.95437384	      0.00000000	      0.00000000	    -11.84271033	     10.29760431	     14.10005764	     10.11396026	     89.95437384	      0.00000000	      0.00000000
      1.13000000	      0.55202370	      8.91764750	     -2.09682881	      0.00932325	      0.93850399	     -1.46346295	    -13.19628173	    -18.78273780	    -25.75823099	    -32.40425285	     -0.56556090	     -2.65553336	      9.32580377	    -11.65282077	     19.30450640	     -7.46241744	     13.73506153	    -17.83027353	     -0.31119698	     -5.07912277	      7.05404756	      0.49630829	     -1.82289325	    -11.96265415	      8.64758329	      6.69311571	    -12.32912881	    -13.15965753	     34.57856746	     89.95437384	      0.00000000	      0.00000000	    -11.34409685	     10.39569425	     13.11841678	     10.37478780	     89.95437384	      0.00000000	      0.00000000
      1.14000000	      0.55914959	      9.26212604	     -1.92084771	      0.02068590	      0.93970025	     -1.46686332	    -12.34123041	    -19.84743025	    -25.55314420	    -34.56548544	     -0.60328153	     -6.20403577	      8.19150273	    -10.60563815	     18.68397601	     -8.21921711	     13.29075522	    -18.13814860	     -0.31657041	     -4.17711911	      6.99027201	      0.23938522	     -1.65183299	    -12.24788520	      8.38281554	      6.15738455	    -12.18792988	    -12.83129409	     33.98815541	     89.95437384	      0.00000000	      0.00000000	    -10.71398778	     10.43075472	     12.78548511	     10.44668917	     89.95437384	      0.00000000	      0.00000000
      1.15000000	      0.44256043	      9.93194477	     -1.83578289	      0.03142856	      0.94087010	     -1.47047481	    -11.01059472	    -21.29394994	    -24.98278255	    -37.04634360	     -0.64658067	     -9.34612975	      6.22832520	     -9.38253320	     17.83142797	     -9.53070808	     12.28904032	    -17.50298145	     -0.30548466	     -3.98542163	      8.42156214	      0.32281262	     -1.39810929	    -12.87939056	      8.26696311	      5.60657105	    -11.94101322	    -12.93836889	     33.46260260	     89.95437384	      0.00000000	      0.00000000	    -10.03266840	     10.48082437	     12.53159238	     10.73008657	     89.95437384	      0.00000000	      0.00000000
      1.16000000	      0.42961940	     10.24249798	     -1.68820483	      0.04208356	      0.94220266	     -1.47362471	     -9.82063876	    -22.16720963	    -24.13797863	    -39.25055013	     -0.68505133	    -12.20958660	      5.28363354	     -8.56385946	     16.87187424	    -10.22395166	     11.99995383	    -17.08451271	     -0.29818100	     -3.18648545	      8.08455512	      0.21188060	     -1.29126662	    -13.14332340	      8.01798050	      5.13504561	    -11.78464225	    -12.62062070	     32.86373605	     89.95437384	      0.00000000	      0.00000000	     -9.24543635	     10.49617702	     12.46611789	     10.89948143	     89.95437384	      0.00000000	      0.00000000
      1.17000000	      0.11716491	     10.69845544	     -1.75084303	      0.05177742	      0.94310339	     -1.47647244	     -7.73995370	    -23.15595689	    -22.62966910	    -42.04189085	     -0.73376942	    -13.95553914	      3.42658766	     -7.79499014	     16.24481778	    -11.02317695	     11.76789090	    -16.40960017	     -0.28640155	     -3.11709280	      8.44186216	      0.46820821	     -0.92378498	    -13.57074680	      7.97431007	      4.70005459	    -11.58020625	    -12.52838073	     32.22449507	     89.95437384	      0.00000000	      0.00000000	     -8.45153171	     10.55375270	     12.33268209	     11.25159277	     89.95437384	      0.00000000	      0.00000000
      1.18000000	      0.25910262	     10.40538012	     -1.31896934	      0.06149192	      0.94481118	     -1.47912037	     -6.67438847	    -23.10292368	    -21.86283512	    -44.22329707	     -0.77184214	    -14.52747527	      2.99717089	     -7.56646047	     15.26037476	    -10.94104411	     11.66501092	    -16.29425596	     -0.28438842	     -2.67587337	      7.92267897	      0.38489538	     -1.27451378	    -13.23483620	      7.24261308	      4.32137984	    -11.39949110	    -12.31142875	     31.83102769	     89.95437384	      0.00000000	      0.00000000	     -7.65111642	     10.56841429	     12.16115742	     11.78056867	     89.95437384	      0.00000000	      0.00000000
      1.19000000	     -0.45551782	     11.16774150	     -1.86220411	      0.07026252	      0.94488681	     -1.48121603	     -3.35011356	    -24.50884412	    -19.98202455	    -47.55248520	     -0.82994743	    -15.19214775	     -1.19036385	     -7.06239557	     15.07236994	    -11.90652237	     11.68463623	    -15.37596662	     -0.26836124	     -2.51945479	      7.72448027	      0.60222385	     -0.36697912	    -13.98821165	      7.66337097	      4.10983934	    -11.30480465	    -11.52454530	     30.81176022	     89.95437384	      0.00000000	      0.00000000	     -6.81663944	     10.61537041	     12.41978503	     12.13023986	     89.95437384	      0.00000000	      0.00000000
      1.20000000	     -0.77925359	     11.29038672	     -1.98782087	      0.07924978	      0.94571450	     -1.48333304	     -0.99684278	    -24.99209751	    -18.93850211	    -50.10249028	     -0.87445342	    -14.98531085	     -4.12525629	     -6.50414751	     14.51858752	    -12.20709291	     11.70410786	    -14.82866825	     -0.25880908	     -2.07639032	      7.51105399	      0.81621609	     -0.04805097	    -14.06548053	      7.51588203	      3.90804968	    -11.14135921	    -11.13192993	     30.00637905	     89.95437384	      0.00000000	      0.00000000	     -5.90930927	     10.59012827	     12.70750333	     12.47223867	     89.95437384	      0.00000000	      0.00000000
